<svg xmlns="http://www.w3.org/2000/svg" xmlns:xlink="http://www.w3.org/1999/xlink" version="1.1" x="0px" y="0px" viewBox="0 0 50 62.5" enable-background="new 0 0 50 50" xml:space="preserve"><g><path d="M14.2,28.8c0,0,0-0.1,0-0.1c0-0.3,0.3-0.6,0.6-0.6c0.3,0,0.6,0.3,0.6,0.6c0,0.1,0,0.1,0,0.1h0.9c0.1-0.2,0.3-0.3,0.5-0.3   c0.2,0,0.4,0.1,0.5,0.3h4c0-0.1-0.1-0.2-0.1-0.3c0-0.4,0.3-0.7,0.7-0.7c0.4,0,0.7,0.3,0.7,0.7c0,0.1,0,0.2-0.1,0.3h0.4   c0-0.2,0.3-0.4,0.5-0.4c0.3,0,0.5,0.2,0.5,0.4h0.7c-0.1-0.1-0.2-0.3-0.2-0.4c0-0.3,0.2-0.5,0.5-0.5c0.3,0,0.5,0.2,0.5,0.5   c0,0.2-0.1,0.3-0.2,0.4h6.4c-0.1-0.1-0.1-0.2-0.1-0.3c0-0.3,0.2-0.5,0.5-0.5c0.3,0,0.5,0.2,0.5,0.5c0,0.1,0,0.2-0.1,0.3h1.1   c0,0,0-0.1,0-0.1c0-0.3,0.2-0.5,0.5-0.5c0.2,0,0.4,0.1,0.5,0.3c0.1-0.1,0.2-0.1,0.4-0.1c0.3,0,0.5,0.2,0.6,0.5h0.8   c0.4-2.4,0.6-5.1,0.6-7.9c0-9.2-2.1-16.7-4.7-16.7c-1.1,0-2.1,1.3-2.9,3.5c-1-4.1-2.4-6.7-4-6.7c-1.9,0-3.6,3.8-4.5,9.4   c-0.7-1.9-1.6-3-2.5-3c-2.3,0-4.2,6.8-4.2,15.1c0,2.3,0.1,4.4,0.4,6.3H14.2z M15.3,27.4c-0.3,0-0.6-0.3-0.6-0.6s0.3-0.6,0.6-0.6   c0.3,0,0.6,0.3,0.6,0.6S15.6,27.4,15.3,27.4z M15.6,24.7c-0.3,0-0.6-0.3-0.6-0.6c0-0.3,0.3-0.6,0.6-0.6c0.3,0,0.6,0.3,0.6,0.6   C16.2,24.4,15.9,24.7,15.6,24.7z M15,20.4c0.3,0,0.6,0.3,0.6,0.6c0,0.3-0.3,0.6-0.6,0.6c-0.3,0-0.6-0.3-0.6-0.6   C14.4,20.7,14.6,20.4,15,20.4z M14.3,19.2c0-0.3,0.3-0.6,0.6-0.6c0.3,0,0.6,0.3,0.6,0.6s-0.3,0.6-0.6,0.6   C14.6,19.7,14.3,19.5,14.3,19.2z M16.1,22.9c-0.3,0-0.6-0.3-0.6-0.6c0-0.3,0.3-0.6,0.6-0.6s0.6,0.3,0.6,0.6   C16.7,22.6,16.4,22.9,16.1,22.9z M17.6,21c0.3,0,0.6,0.3,0.6,0.6s-0.3,0.6-0.6,0.6S17,21.9,17,21.6S17.3,21,17.6,21z M17.5,17.1   c-0.3,0-0.6-0.3-0.6-0.6c0-0.3,0.3-0.6,0.6-0.6c0.3,0,0.6,0.2,0.6,0.6C18,16.9,17.8,17.1,17.5,17.1z M18.4,23   c0.3,0,0.6,0.3,0.6,0.6c0,0.3-0.3,0.6-0.6,0.6s-0.6-0.3-0.6-0.6C17.8,23.2,18.1,23,18.4,23z M19.4,24.5c0.3,0,0.6,0.3,0.6,0.6   c0,0.3-0.3,0.6-0.6,0.6s-0.6-0.3-0.6-0.6C18.9,24.7,19.1,24.5,19.4,24.5z M19.6,19.5c0-0.3,0.3-0.6,0.6-0.6h0   c0.1-0.3,0.3-0.5,0.6-0.5c0.4,0,0.7,0.3,0.7,0.7c0,0.4-0.3,0.7-0.7,0.7c-0.1,0-0.1,0-0.2,0c-0.1,0.2-0.3,0.3-0.5,0.3   C19.8,20.1,19.6,19.9,19.6,19.5z M19.8,21.7c0,0.3-0.3,0.6-0.6,0.6c-0.3,0-0.6-0.3-0.6-0.6c0-0.3,0.3-0.6,0.6-0.6   C19.5,21.2,19.8,21.4,19.8,21.7z M18.2,20.4c-0.3,0-0.6-0.3-0.6-0.6s0.3-0.6,0.6-0.6s0.6,0.3,0.6,0.6S18.5,20.4,18.2,20.4z M18,13   c-0.3,0-0.6-0.3-0.6-0.6c0-0.3,0.3-0.6,0.6-0.6c0.3,0,0.6,0.3,0.6,0.6C18.6,12.8,18.4,13,18,13z M17.9,14.5c0,0.3-0.3,0.6-0.6,0.6   s-0.6-0.3-0.6-0.6c0-0.3,0.3-0.6,0.6-0.6S17.9,14.2,17.9,14.5z M17.3,18.4c0,0.3-0.3,0.6-0.6,0.6c-0.3,0-0.6-0.3-0.6-0.6   c0-0.3,0.3-0.6,0.6-0.6C17,17.9,17.3,18.1,17.3,18.4z M16.3,19.7c0.3,0,0.6,0.3,0.6,0.6c0,0.3-0.3,0.6-0.6,0.6   c-0.3,0-0.6-0.3-0.6-0.6C15.7,20,16,19.7,16.3,19.7z M16.9,27.4c-0.3,0-0.6-0.3-0.6-0.6s0.3-0.6,0.6-0.6s0.6,0.3,0.6,0.6   S17.2,27.4,16.9,27.4z M17.1,25.6c-0.3,0-0.6-0.3-0.6-0.6c0-0.3,0.3-0.6,0.6-0.6s0.6,0.3,0.6,0.6C17.7,25.3,17.4,25.6,17.1,25.6z    M18.2,28.4c-0.3,0-0.6-0.3-0.6-0.6c0-0.3,0.3-0.6,0.6-0.6s0.6,0.3,0.6,0.6C18.7,28.1,18.5,28.4,18.2,28.4z M18.4,26.4   c-0.3,0-0.6-0.3-0.6-0.6c0-0.3,0.3-0.6,0.6-0.6s0.6,0.3,0.6,0.6C18.9,26.2,18.7,26.4,18.4,26.4z M19.6,28c-0.3,0-0.6-0.3-0.6-0.6   c0-0.3,0.3-0.6,0.6-0.6c0.3,0,0.6,0.3,0.6,0.6C20.1,27.7,19.9,28,19.6,28z M20.1,21.8c0-0.4,0.3-0.7,0.7-0.7c0.4,0,0.7,0.3,0.7,0.7   c0,0.4-0.3,0.7-0.7,0.7C20.4,22.5,20.1,22.2,20.1,21.8z M21.1,27c-0.4,0-0.7-0.3-0.7-0.7s0.3-0.7,0.7-0.7c0.4,0,0.7,0.3,0.7,0.7   S21.5,27,21.1,27z M21.8,24.7c-0.4,0-0.7-0.3-0.7-0.7c0-0.4,0.3-0.7,0.7-0.7c0.4,0,0.7,0.3,0.7,0.7C22.5,24.4,22.2,24.7,21.8,24.7z    M22.2,21.4c-0.4,0-0.7-0.3-0.7-0.7c0-0.4,0.3-0.7,0.7-0.7c0.4,0,0.7,0.3,0.7,0.7C22.9,21.1,22.5,21.4,22.2,21.4z M24.3,8.3   C24.7,8.3,25,8.6,25,9s-0.3,0.7-0.7,0.7c-0.4,0-0.7-0.3-0.7-0.7S23.9,8.3,24.3,8.3z M27.8,14.1c0-0.3,0.3-0.6,0.6-0.6   s0.6,0.3,0.6,0.6s-0.3,0.6-0.6,0.6c-0.1,0-0.1,0-0.2,0c0.1,0.1,0.1,0.2,0.1,0.4c0,0.4-0.3,0.7-0.7,0.7c-0.4,0-0.7-0.3-0.7-0.7   s0.3-0.7,0.7-0.7c0.1,0,0.1,0,0.2,0.1C27.8,14.4,27.8,14.3,27.8,14.1z M30.6,17.3c0-0.3,0.2-0.5,0.5-0.6c-0.2-0.1-0.3-0.3-0.3-0.5   c0-0.3,0.2-0.5,0.5-0.5c0.3,0,0.5,0.2,0.5,0.5c0,0.2-0.2,0.4-0.4,0.5c0.2,0.1,0.4,0.3,0.4,0.5c0,0.3-0.3,0.6-0.6,0.6h0   c0,0.1,0.1,0.1,0.1,0.2c0,0.3-0.2,0.5-0.5,0.5s-0.5-0.2-0.5-0.5c0-0.3,0.2-0.5,0.5-0.5C30.7,17.6,30.6,17.5,30.6,17.3z M33.8,22.7   c0,0.3-0.2,0.5-0.5,0.5c-0.1,0-0.2,0-0.3-0.1c-0.1,0.3-0.3,0.5-0.6,0.5c-0.2,0-0.4-0.1-0.5-0.3c-0.1,0.1-0.2,0.2-0.4,0.2   c0,0,0,0,0,0c0.1,0.1,0.2,0.3,0.2,0.4c0,0.2-0.1,0.3-0.2,0.5c0,0.1,0.1,0.1,0.1,0.2c0,0.3-0.2,0.5-0.5,0.5c-0.3,0-0.5-0.2-0.5-0.5   c0-0.1,0-0.2,0.1-0.3c-0.1-0.1-0.2-0.2-0.2-0.4c0-0.3,0.3-0.6,0.6-0.6c0,0,0.1,0,0.1,0C31.1,23.2,31,23.1,31,23   c0-0.3,0.2-0.5,0.5-0.5c0.1,0,0.3,0.1,0.4,0.2c0.1-0.2,0.3-0.3,0.5-0.3c0.2,0,0.3,0.1,0.4,0.2c0.1-0.2,0.3-0.3,0.5-0.3   c0.1,0,0.2,0,0.2,0c0-0.1-0.1-0.2-0.1-0.3c0-0.3,0.3-0.6,0.6-0.6s0.6,0.3,0.6,0.6s-0.3,0.6-0.6,0.6c-0.1,0-0.2,0-0.3-0.1   C33.8,22.6,33.8,22.7,33.8,22.7z M32,24.7c0-0.3,0.2-0.5,0.5-0.5c0.2,0,0.3,0.1,0.4,0.3c0.2,0.1,0.3,0.3,0.3,0.5   c0,0.3-0.3,0.6-0.6,0.6S32,25.3,32,25c0,0,0,0,0,0C32,24.9,32,24.8,32,24.7z M30.3,23.4c0,0.3-0.2,0.5-0.5,0.5   c-0.2,0-0.4-0.1-0.4-0.3c0,0.1-0.1,0.2-0.1,0.2c0,0.1,0.1,0.2,0.1,0.3c0,0.3-0.3,0.6-0.6,0.6s-0.6-0.3-0.6-0.6c0,0,0-0.1,0-0.1   c0-0.2,0.1-0.4,0.3-0.5c0,0,0,0,0-0.1c0-0.3,0.2-0.5,0.5-0.5c0.2,0,0.3,0.1,0.4,0.2c0-0.1,0-0.1,0-0.2c0-0.3,0.3-0.6,0.6-0.6   s0.6,0.3,0.6,0.6C30.5,23.2,30.4,23.3,30.3,23.4C30.3,23.4,30.3,23.4,30.3,23.4z M24.2,19.4c0-0.3,0.2-0.5,0.5-0.5   c0.3,0,0.5,0.2,0.5,0.5c0,0.3-0.2,0.5-0.5,0.5C24.4,20,24.2,19.7,24.2,19.4z M24.6,21c0,0.3-0.2,0.5-0.5,0.5   c-0.3,0-0.5-0.2-0.5-0.5c0-0.3,0.2-0.5,0.5-0.5C24.4,20.5,24.6,20.7,24.6,21z M25.2,5.8c0.4,0,0.7,0.3,0.7,0.7s-0.3,0.7-0.7,0.7   c-0.4,0-0.7-0.3-0.7-0.7S24.8,5.8,25.2,5.8z M26.2,16.9c-0.3,0-0.5-0.2-0.5-0.5c0-0.3,0.2-0.5,0.5-0.5c0.3,0,0.5,0.2,0.5,0.5   C26.7,16.7,26.5,16.9,26.2,16.9z M27.1,17.8c0,0.3-0.2,0.5-0.5,0.5s-0.5-0.2-0.5-0.5c0-0.3,0.2-0.5,0.5-0.5S27.1,17.6,27.1,17.8z    M25.8,20.8c0.3,0,0.5,0.2,0.5,0.5c0,0.3-0.2,0.5-0.5,0.5c-0.3,0-0.5-0.2-0.5-0.5C25.3,21,25.5,20.8,25.8,20.8z M25.1,18.4   c-0.3,0-0.5-0.2-0.5-0.5c0-0.3,0.2-0.5,0.5-0.5c0.3,0,0.5,0.2,0.5,0.5C25.6,18.2,25.3,18.4,25.1,18.4z M24.5,12.1   c-0.4,0-0.7-0.3-0.7-0.7c0-0.4,0.3-0.7,0.7-0.7c0.4,0,0.7,0.3,0.7,0.7C25.2,11.8,24.9,12.1,24.5,12.1z M25.2,24.4   c0.3,0,0.5,0.2,0.5,0.5c0,0.3-0.2,0.5-0.5,0.5c-0.3,0-0.5-0.2-0.5-0.5C24.7,24.6,24.9,24.4,25.2,24.4z M25.4,23.2   c0-0.3,0.2-0.5,0.5-0.5c0.3,0,0.5,0.2,0.5,0.5c0,0.3-0.2,0.5-0.5,0.5C25.6,23.7,25.4,23.4,25.4,23.2z M25.9,19.4   c0-0.3,0.2-0.5,0.5-0.5s0.5,0.2,0.5,0.5c0,0.3-0.2,0.5-0.5,0.5S25.9,19.7,25.9,19.4z M27.4,24c0.3,0,0.5,0.2,0.5,0.5   S27.7,25,27.4,25c-0.3,0-0.5-0.2-0.5-0.5S27.1,24,27.4,24z M30.2,21.2c0.1,0,0.2,0,0.2,0.1c0-0.3,0.3-0.5,0.6-0.5   c0.3,0,0.6,0.3,0.6,0.6c0,0.3-0.3,0.6-0.6,0.6c-0.1,0-0.2,0-0.3-0.1c-0.1,0.2-0.3,0.4-0.5,0.4c-0.3,0-0.5-0.2-0.5-0.5   c0,0,0-0.1,0-0.1c-0.1,0.1-0.3,0.2-0.4,0.2c-0.3,0-0.6-0.3-0.6-0.6c0,0.3-0.3,0.5-0.5,0.5c-0.1,0-0.1,0-0.2,0c0,0-0.1,0-0.1,0   c-0.3,0-0.5-0.2-0.5-0.5c0-0.3,0.2-0.5,0.5-0.5c0.1,0,0.1,0,0.2,0c0,0,0.1,0,0.1,0c0.3,0,0.5,0.2,0.5,0.5c0-0.3,0.3-0.6,0.6-0.6   c0.3,0,0.6,0.3,0.6,0.6c0,0.1,0,0.1,0,0.2C30,21.3,30.1,21.2,30.2,21.2z M33.5,19.4c0.3,0,0.5,0.2,0.6,0.5c0.2,0.1,0.3,0.2,0.3,0.4   c0,0.3-0.2,0.5-0.5,0.5c-0.2,0-0.3-0.1-0.4-0.2c-0.3,0-0.5-0.3-0.5-0.6c0,0,0,0,0-0.1c-0.1,0-0.2,0.1-0.3,0.1   c-0.2,0-0.3-0.1-0.4-0.3c-0.1,0.1-0.2,0.1-0.4,0.1c-0.3,0-0.6-0.3-0.6-0.6s0.3-0.6,0.6-0.6c0.3,0,0.5,0.2,0.6,0.4   c0.1,0,0.1-0.1,0.2-0.1c0.3,0,0.5,0.2,0.5,0.5v0C33.3,19.4,33.4,19.4,33.5,19.4z M32.9,21.4c0,0.3-0.2,0.5-0.5,0.5   c-0.3,0-0.5-0.2-0.5-0.5c0-0.3,0.2-0.5,0.5-0.5C32.6,20.9,32.9,21.1,32.9,21.4z M27.7,22.1c0.1,0,0.3,0,0.4,0.1   c0-0.2,0.3-0.4,0.5-0.4c0.3,0,0.5,0.2,0.5,0.5c0,0.3-0.2,0.5-0.5,0.5c-0.1,0-0.3-0.1-0.4-0.1c-0.1,0.2-0.3,0.4-0.5,0.4   c-0.3,0-0.5-0.2-0.5-0.5C27.2,22.4,27.4,22.1,27.7,22.1z M28.2,25.2c0.2,0,0.3,0.1,0.4,0.2c0.2,0.1,0.3,0.3,0.3,0.4   c0,0.3-0.2,0.5-0.5,0.5c-0.2,0-0.3-0.1-0.4-0.2c-0.2-0.1-0.3-0.3-0.3-0.4C27.6,25.5,27.9,25.2,28.2,25.2z M34.1,18.6   c0-0.3,0.3-0.6,0.6-0.6s0.6,0.3,0.6,0.6s-0.3,0.6-0.6,0.6S34.1,18.9,34.1,18.6z M34.8,17.2c-0.3,0-0.6-0.3-0.6-0.6s0.3-0.6,0.6-0.6   s0.6,0.3,0.6,0.6S35.2,17.2,34.8,17.2z M34.1,14.4c-0.3,0-0.6-0.3-0.6-0.6c0-0.3,0.3-0.6,0.6-0.6s0.6,0.3,0.6,0.6   C34.8,14.1,34.5,14.4,34.1,14.4z M33.9,17.8c0,0.3-0.3,0.6-0.6,0.6c-0.1,0-0.1,0-0.2,0c-0.1,0-0.1,0.1-0.2,0.1   c-0.3,0-0.5-0.2-0.5-0.5c0-0.3,0.2-0.5,0.5-0.5c0.1-0.1,0.3-0.2,0.5-0.2C33.6,17.2,33.9,17.5,33.9,17.8z M32.8,16.4   c-0.3,0-0.6-0.3-0.6-0.6c0-0.1,0-0.2,0.1-0.3c0-0.3,0.2-0.5,0.5-0.5c0.2,0,0.4,0.1,0.5,0.3c0.1,0.1,0.2,0.3,0.2,0.4   C33.4,16.2,33.2,16.4,32.8,16.4z M31.4,9.9c-0.3,0-0.6-0.3-0.6-0.6s0.3-0.6,0.6-0.6C31.7,8.7,32,9,32,9.3S31.7,9.9,31.4,9.9z    M32.2,10.9c0.3,0,0.6,0.3,0.6,0.6s-0.3,0.6-0.6,0.6c-0.3,0-0.6-0.3-0.6-0.6S31.8,10.9,32.2,10.9z M31.2,12.7   c0.3,0,0.5,0.2,0.5,0.5c0.1-0.1,0.2-0.1,0.3-0.1c0.3,0,0.6,0.3,0.6,0.6c0,0.3-0.3,0.6-0.6,0.6c0,0,0,0-0.1,0   c0.1,0.1,0.1,0.2,0.1,0.3c0,0.3-0.2,0.5-0.5,0.5c-0.3,0-0.5-0.2-0.5-0.5c0-0.3,0.2-0.5,0.5-0.5c-0.1-0.1-0.2-0.3-0.2-0.4   c0,0,0,0,0-0.1c-0.1,0-0.1,0.1-0.2,0.1c-0.3,0-0.5-0.2-0.5-0.5S30.9,12.7,31.2,12.7z M30.7,19.4c0,0.1,0,0.1,0,0.1   c0.1,0,0.1,0,0.2,0c0.3,0,0.5,0.2,0.5,0.5c0,0.3-0.2,0.5-0.5,0.5c-0.3,0-0.5-0.2-0.5-0.5c0,0,0,0,0-0.1c-0.1,0-0.2,0.1-0.3,0.1   c-0.3,0-0.6-0.3-0.6-0.6s0.3-0.6,0.6-0.6C30.4,18.8,30.7,19.1,30.7,19.4z M29.6,20c0,0.3-0.2,0.5-0.5,0.5s-0.5-0.2-0.5-0.5   c0-0.3,0.2-0.5,0.5-0.5S29.6,19.7,29.6,20z M28.5,19.5c-0.2,0-0.4-0.1-0.5-0.3c-0.1,0-0.1,0-0.2,0c-0.3,0-0.5-0.2-0.5-0.5   c0-0.3,0.2-0.5,0.5-0.5c0.1,0,0.3,0.1,0.4,0.2c0.1-0.1,0.2-0.1,0.3-0.1c0.3,0,0.6,0.3,0.6,0.6C29.1,19.2,28.8,19.5,28.5,19.5z    M26.4,14c-0.4,0-0.7-0.3-0.7-0.7s0.3-0.7,0.7-0.7s0.7,0.3,0.7,0.7S26.8,14,26.4,14z M24.2,13.8c0,0.4-0.3,0.7-0.7,0.7   c-0.4,0-0.7-0.3-0.7-0.7s0.3-0.7,0.7-0.7C23.9,13.1,24.2,13.4,24.2,13.8z M23,15.3c0.4,0,0.7,0.3,0.7,0.7c0,0.4-0.3,0.7-0.7,0.7   c-0.4,0-0.7-0.3-0.7-0.7C22.3,15.6,22.6,15.3,23,15.3z M22.8,17.8c0.4,0,0.7,0.3,0.7,0.7c0,0.4-0.3,0.7-0.7,0.7   c-0.4,0-0.7-0.3-0.7-0.7C22.1,18.1,22.4,17.8,22.8,17.8z M22.7,24.3c0-0.3,0.2-0.5,0.5-0.5c0.3,0,0.5,0.2,0.5,0.5s-0.2,0.5-0.5,0.5   C22.9,24.8,22.7,24.5,22.7,24.3z M23.5,25c0.3,0,0.5,0.2,0.5,0.5c0,0.3-0.2,0.5-0.5,0.5c-0.3,0-0.5-0.2-0.5-0.5   C23,25.2,23.3,25,23.5,25z M23.6,27.7c-0.3,0-0.5-0.2-0.5-0.5c0-0.3,0.2-0.5,0.5-0.5c0.3,0,0.5,0.2,0.5,0.5   C24.1,27.5,23.9,27.7,23.6,27.7z M24.1,23.7c-0.3,0-0.5-0.2-0.5-0.5c0-0.3,0.2-0.5,0.5-0.5c0.3,0,0.5,0.2,0.5,0.5   C24.6,23.4,24.4,23.7,24.1,23.7z M24.8,27.1c-0.3,0-0.5-0.2-0.5-0.5c0-0.3,0.2-0.5,0.5-0.5c0.3,0,0.5,0.2,0.5,0.5   C25.4,26.8,25.1,27.1,24.8,27.1z M26,28.3c-0.3,0-0.5-0.2-0.5-0.5c0-0.3,0.2-0.5,0.5-0.5c0.3,0,0.5,0.2,0.5,0.5   C26.5,28,26.3,28.3,26,28.3z M26.5,26.7c-0.3,0-0.5-0.2-0.5-0.5c0-0.3,0.2-0.5,0.5-0.5c0.3,0,0.5,0.2,0.5,0.5   C27,26.4,26.8,26.7,26.5,26.7z M29.3,27.4C29.3,27.4,29.3,27.4,29.3,27.4c0,0.4-0.2,0.6-0.5,0.6c-0.1,0-0.1,0-0.2,0   c-0.1,0.2-0.3,0.3-0.5,0.3c-0.1,0-0.2,0-0.3-0.1c-0.1,0.1-0.2,0.2-0.4,0.2c-0.3,0-0.5-0.2-0.5-0.5c0-0.3,0.2-0.5,0.5-0.5   c0.1,0,0.2,0,0.3,0.1c0.1-0.1,0.2-0.2,0.4-0.2c0.1,0,0.1,0,0.2,0c0-0.1,0.2-0.3,0.3-0.3c0,0,0-0.1,0-0.1c0-0.3,0.2-0.5,0.5-0.5   c0.3,0,0.5,0.2,0.5,0.5C29.7,27.1,29.5,27.3,29.3,27.4z M29.1,25.6c0-0.1,0-0.1,0-0.2c0-0.1,0-0.1,0-0.2c0-0.3,0.2-0.5,0.5-0.5   c0.3,0,0.4,0.2,0.5,0.4c0.1,0.1,0.2,0.3,0.2,0.5c0,0.3-0.3,0.6-0.6,0.6S29.1,25.9,29.1,25.6z M30.5,28.6c-0.3,0-0.6-0.3-0.6-0.6   c0-0.2,0.1-0.3,0.2-0.5c0.1-0.2,0.3-0.3,0.5-0.3c0.3,0,0.5,0.2,0.5,0.5c0,0,0,0,0,0c0,0.1,0,0.1,0,0.2   C31.1,28.3,30.8,28.6,30.5,28.6z M31.7,26.9c-0.2,0-0.3-0.1-0.4-0.2h0c-0.3,0-0.6-0.3-0.6-0.6s0.3-0.6,0.6-0.6   c0.3,0,0.5,0.2,0.6,0.5c0.2,0.1,0.4,0.3,0.4,0.5C32.2,26.6,32,26.9,31.7,26.9z M33.1,28c-0.1,0.2-0.3,0.3-0.4,0.3   c-0.3,0-0.5-0.2-0.5-0.5c0-0.1,0-0.3,0.1-0.4c0-0.3,0.3-0.6,0.6-0.6c0.3,0,0.6,0.3,0.6,0.6C33.5,27.7,33.3,27.9,33.1,28z    M33.1,26.7c-0.3,0-0.5-0.2-0.5-0.5c0-0.3,0.2-0.5,0.5-0.5c0.3,0,0.5,0.2,0.5,0.5C33.7,26.5,33.4,26.7,33.1,26.7z M33.8,25   c0-0.1,0-0.1,0-0.2c0,0,0,0,0,0c-0.3,0-0.5-0.2-0.5-0.5c0-0.3,0.2-0.5,0.5-0.5c0.3,0,0.5,0.2,0.5,0.5c0,0,0,0.1,0,0.1   c0,0,0.1,0,0.1,0c0.3,0,0.6,0.3,0.6,0.6s-0.3,0.6-0.6,0.6S33.8,25.3,33.8,25z M35,27.6c-0.3,0-0.6-0.3-0.6-0.6   c0-0.3,0.3-0.6,0.6-0.6s0.6,0.3,0.6,0.6C35.6,27.3,35.4,27.6,35,27.6z M35.3,23.6c-0.3,0-0.6-0.3-0.6-0.6s0.3-0.6,0.6-0.6   s0.6,0.3,0.6,0.6S35.6,23.6,35.3,23.6z M35.3,21.2c-0.3,0-0.6-0.3-0.6-0.6s0.3-0.6,0.6-0.6s0.6,0.3,0.6,0.6S35.6,21.2,35.3,21.2z    M35.3,14.5c0.3,0,0.6,0.3,0.6,0.6s-0.3,0.6-0.6,0.6s-0.6-0.3-0.6-0.6S34.9,14.5,35.3,14.5z M34.8,11.1c0,0.3-0.3,0.6-0.6,0.6   s-0.6-0.3-0.6-0.6s0.3-0.6,0.6-0.6S34.8,10.8,34.8,11.1z M34.1,9.3c0,0.3-0.3,0.6-0.6,0.6c-0.3,0-0.6-0.3-0.6-0.6s0.3-0.6,0.6-0.6   C33.8,8.7,34.1,9,34.1,9.3z M33,6.8c0.3,0,0.6,0.3,0.6,0.6S33.4,8.1,33,8.1s-0.6-0.3-0.6-0.6S32.7,6.8,33,6.8z M31.7,5   c0.3,0,0.6,0.3,0.6,0.6c0,0.3-0.3,0.6-0.6,0.6S31,5.9,31,5.6C31,5.3,31.3,5,31.7,5z M31.2,6.7c0.3,0,0.6,0.3,0.6,0.6   c0,0.3-0.3,0.6-0.6,0.6c-0.3,0-0.6-0.3-0.6-0.6C30.6,7,30.8,6.7,31.2,6.7z M30.6,14.8C30.6,14.8,30.5,14.8,30.6,14.8   c0.2,0.2,0.3,0.4,0.3,0.6c0,0.3-0.3,0.6-0.6,0.6c-0.1,0-0.1,0-0.2,0c0.1,0.1,0.1,0.2,0.1,0.3c0,0.3-0.2,0.5-0.5,0.5c0,0,0,0,0,0   c0,0.1,0,0.1,0,0.2c0,0.2-0.1,0.4-0.2,0.5c0.1,0.1,0.1,0.2,0.1,0.3c0,0.3-0.2,0.5-0.5,0.5s-0.5-0.2-0.5-0.5c0-0.1,0.1-0.3,0.1-0.3   c-0.1-0.1-0.2-0.3-0.2-0.5c0-0.3,0.3-0.6,0.6-0.6c0,0,0.1,0,0.1,0c0,0,0-0.1,0-0.1c0-0.3,0.2-0.5,0.5-0.5c0,0,0.1,0,0.1,0   c-0.1-0.1-0.2-0.3-0.2-0.4c0-0.1,0-0.2,0-0.2c-0.1-0.1-0.1-0.2-0.1-0.4c0-0.3,0.2-0.5,0.5-0.5C30.3,14.3,30.6,14.5,30.6,14.8z    M29.9,13.7c-0.3,0-0.6-0.3-0.6-0.6s0.3-0.6,0.6-0.6s0.6,0.3,0.6,0.6S30.2,13.7,29.9,13.7z M29.7,7.8c0.3,0,0.6,0.3,0.6,0.6   S30.1,9,29.7,9s-0.6-0.3-0.6-0.6S29.4,7.8,29.7,7.8z M28.5,11.2c0.2,0,0.5,0.1,0.6,0.3c0-0.1,0-0.1,0-0.2c0-0.3,0.3-0.6,0.6-0.6   c0.3,0,0.6,0.3,0.6,0.6s-0.3,0.6-0.6,0.6c-0.2,0-0.4-0.1-0.5-0.3c0,0.1,0,0.2,0,0.3c0,0.4-0.3,0.7-0.7,0.7c-0.4,0-0.7-0.3-0.7-0.7   S28.1,11.2,28.5,11.2z M27.1,9.4c-0.4,0-0.7-0.3-0.7-0.7S26.7,8,27.1,8c0.4,0,0.7,0.3,0.7,0.7S27.5,9.4,27.1,9.4z M27,4.8   c0.4,0,0.7,0.3,0.7,0.7S27.4,6.2,27,6.2s-0.7-0.3-0.7-0.7S26.6,4.8,27,4.8z M26.9,10.1c0.4,0,0.7,0.3,0.7,0.7s-0.3,0.7-0.7,0.7   c-0.4,0-0.7-0.3-0.7-0.7S26.5,10.1,26.9,10.1z M22.9,5.8c0.4,0,0.7,0.3,0.7,0.7s-0.3,0.7-0.7,0.7c-0.4,0-0.7-0.3-0.7-0.7   S22.5,5.8,22.9,5.8z M22.1,7.8c0.4,0,0.7,0.3,0.7,0.7s-0.3,0.7-0.7,0.7c-0.4,0-0.7-0.3-0.7-0.7S21.7,7.8,22.1,7.8z M22.1,10.8   c0.4,0,0.7,0.3,0.7,0.7c0,0.4-0.3,0.7-0.7,0.7c-0.4,0-0.7-0.3-0.7-0.7C21.4,11.1,21.7,10.8,22.1,10.8z M21.3,14   c0.4,0,0.7,0.3,0.7,0.7s-0.3,0.7-0.7,0.7c-0.4,0-0.7-0.3-0.7-0.7S20.9,14,21.3,14z M20.8,16.3c0.1,0,0.1,0,0.1,0   c0.1-0.1,0.3-0.2,0.5-0.2c0.4,0,0.7,0.3,0.7,0.7c0,0.4-0.3,0.7-0.7,0.7c-0.1,0-0.3-0.1-0.4-0.1c-0.1,0-0.2,0.1-0.3,0.1   c-0.3,0-0.6-0.3-0.6-0.6S20.4,16.3,20.8,16.3z M19.7,14.9c-0.3,0-0.6-0.3-0.6-0.6c0-0.3,0.3-0.6,0.6-0.6c0.3,0,0.6,0.3,0.6,0.6   C20.2,14.6,20,14.9,19.7,14.9z M19.6,11.1c0.3,0,0.6,0.3,0.6,0.6c0,0.3-0.3,0.6-0.6,0.6c-0.3,0-0.6-0.3-0.6-0.6   C19,11.4,19.2,11.1,19.6,11.1z M19.4,15.4c0.3,0,0.6,0.3,0.6,0.6s-0.3,0.6-0.6,0.6s-0.6-0.3-0.6-0.6S19.1,15.4,19.4,15.4z    M19.1,17.5c0.3,0,0.6,0.3,0.6,0.6c0,0.3-0.3,0.6-0.6,0.6s-0.6-0.3-0.6-0.6C18.5,17.7,18.8,17.5,19.1,17.5z M18.8,10.7   c0,0.3-0.3,0.6-0.6,0.6c-0.3,0-0.6-0.3-0.6-0.6c0-0.3,0.3-0.6,0.6-0.6C18.5,10.1,18.8,10.4,18.8,10.7z M17.8,8.5   c0.3,0,0.6,0.3,0.6,0.6c0,0.3-0.3,0.6-0.6,0.6c-0.3,0-0.6-0.3-0.6-0.6C17.2,8.8,17.5,8.5,17.8,8.5z M16.5,10.2   c0.3,0,0.6,0.3,0.6,0.6c0,0.3-0.3,0.6-0.6,0.6c-0.3,0-0.6-0.3-0.6-0.6C16,10.5,16.2,10.2,16.5,10.2z M16.2,11.9   c0.3,0,0.6,0.3,0.6,0.6c0,0.3-0.3,0.6-0.6,0.6s-0.6-0.3-0.6-0.6C15.6,12.2,15.9,11.9,16.2,11.9z M15.5,13.6c0.3,0,0.6,0.3,0.6,0.6   c0,0.3-0.3,0.6-0.6,0.6c-0.3,0-0.6-0.3-0.6-0.6C15,13.8,15.2,13.6,15.5,13.6z M15.5,16c0.3,0,0.6,0.2,0.6,0.6   c0,0.3-0.3,0.6-0.6,0.6c-0.3,0-0.6-0.3-0.6-0.6C15,16.2,15.2,16,15.5,16z M14.5,17.2c0.3,0,0.6,0.3,0.6,0.6s-0.3,0.6-0.6,0.6   c-0.3,0-0.6-0.3-0.6-0.6S14.2,17.2,14.5,17.2z M14.5,22.3c0.3,0,0.6,0.3,0.6,0.6s-0.3,0.6-0.6,0.6c-0.3,0-0.6-0.3-0.6-0.6   S14.2,22.3,14.5,22.3z M14.5,24.5c0.3,0,0.6,0.3,0.6,0.6c0,0.3-0.3,0.6-0.6,0.6c-0.3,0-0.6-0.3-0.6-0.6   C13.9,24.7,14.2,24.5,14.5,24.5z"/><path d="M28,36.4c-0.4,0-9,0-8.5,0c-0.2,0-6.4,0-6.3,0V42c0,2.5,1.8,4.6,4.2,5v0.3c0,0.9,0.8,1.7,1.7,1.7h11.6   c0.9,0,1.7-0.8,1.7-1.7V47c2.5-0.3,4.4-2.4,4.4-5v-5.5C36.6,36.4,27.7,36.4,28,36.4z"/><path d="M24.6,28.9c0.1,0,0.2,0,0.3-0.1h-0.6C24.4,28.9,24.5,28.9,24.6,28.9z"/><path d="M37.1,30.8H12.9c-0.5,0-0.9,0.4-0.9,0.9v1.7c0,0.5,0.4,0.9,0.9,0.9h24.2c0.5,0,0.9-0.4,0.9-0.9v-1.7   C38.1,31.2,37.6,30.8,37.1,30.8z"/></g><text x="0" y="65" fill="#000000" font-size="5px" font-weight="bold" font-family="'Helvetica Neue', Helvetica, Arial-Unicode, Arial, Sans-serif">Created by Vectors Market</text><text x="0" y="70" fill="#000000" font-size="5px" font-weight="bold" font-family="'Helvetica Neue', Helvetica, Arial-Unicode, Arial, Sans-serif">from the Noun Project</text></svg>